<svg width="12" height="12" viewBox="0 0 12 12" fill="none" xmlns="http://www.w3.org/2000/svg">
<path d="M5.395 8.145C5.59 8.34 5.905 8.34 6.1 8.145L7.895 6.35C7.94135 6.30374 7.97813 6.2488 8.00322 6.18831C8.02831 6.12783 8.04122 6.06298 8.04122 5.9975C8.04122 5.93202 8.02831 5.86717 8.00322 5.80669C7.97813 5.7462 7.94135 5.69126 7.895 5.645L6.1 3.85C6.00651 3.75651 5.87971 3.70399 5.7475 3.70399C5.61529 3.70399 5.48849 3.75651 5.395 3.85C5.30151 3.94349 5.24899 4.07029 5.24899 4.2025C5.24899 4.33471 5.30151 4.46151 5.395 4.555L6.335 5.5H2C1.725 5.5 1.5 5.725 1.5 6C1.5 6.275 1.725 6.5 2 6.5H6.335L5.395 7.44C5.2 7.635 5.205 7.955 5.395 8.145ZM9.5 1.5H2.5C2.23478 1.5 1.98043 1.60536 1.79289 1.79289C1.60536 1.98043 1.5 2.23478 1.5 2.5V4C1.5 4.275 1.725 4.5 2 4.5C2.275 4.5 2.5 4.275 2.5 4V3C2.5 2.725 2.725 2.5 3 2.5H9C9.275 2.5 9.5 2.725 9.5 3V9C9.5 9.275 9.275 9.5 9 9.5H3C2.725 9.5 2.5 9.275 2.5 9V8C2.5 7.725 2.275 7.5 2 7.5C1.725 7.5 1.5 7.725 1.5 8V9.5C1.5 10.05 1.95 10.5 2.5 10.5H9.5C10.05 10.5 10.5 10.05 10.5 9.5V2.5C10.5 1.95 10.05 1.5 9.5 1.5Z" fill="#A8A7AC"/>
</svg>
