<svg width="11" height="11" viewBox="0 0 11 11" fill="none" xmlns="http://www.w3.org/2000/svg">
<path fill-rule="evenodd" clip-rule="evenodd" d="M9.43468 0.673906H1.34781C1.16908 0.673906 0.99767 0.744907 0.871288 0.871288C0.744907 0.99767 0.673906 1.16908 0.673906 1.34781V6.73906C0.673906 6.91779 0.744907 7.0892 0.871288 7.21558C0.99767 7.34196 1.16908 7.41297 1.34781 7.41297H3.03258C3.24182 7.41297 3.44819 7.46168 3.63534 7.55526C3.82249 7.64883 3.98528 7.7847 4.11083 7.95209L5.39125 9.65909L6.67167 7.95209C6.79721 7.7847 6.96001 7.64883 7.14716 7.55526C7.33431 7.46168 7.54068 7.41297 7.74992 7.41297H9.43468C9.61341 7.41297 9.78483 7.34196 9.91121 7.21558C10.0376 7.0892 10.1086 6.91779 10.1086 6.73906V1.34781C10.1086 1.16908 10.0376 0.99767 9.91121 0.871288C9.78483 0.744907 9.61341 0.673906 9.43468 0.673906ZM1.34781 0C0.99035 0 0.647529 0.142001 0.394765 0.394765C0.142001 0.647529 0 0.99035 0 1.34781L0 6.73906C0 7.09652 0.142001 7.43934 0.394765 7.69211C0.647529 7.94487 0.99035 8.08687 1.34781 8.08687H3.03258C3.1372 8.08687 3.24038 8.11123 3.33396 8.15802C3.42753 8.20481 3.50893 8.27274 3.5717 8.35643L4.85212 10.0634C4.9149 10.1471 4.99629 10.2151 5.08987 10.2619C5.18344 10.3086 5.28663 10.333 5.39125 10.333C5.49587 10.333 5.59905 10.3086 5.69263 10.2619C5.7862 10.2151 5.8676 10.1471 5.93037 10.0634L7.21079 8.35643C7.27357 8.27274 7.35496 8.20481 7.44854 8.15802C7.54211 8.11123 7.6453 8.08687 7.74992 8.08687H9.43468C9.79215 8.08687 10.135 7.94487 10.3877 7.69211C10.6405 7.43934 10.7825 7.09652 10.7825 6.73906V1.34781C10.7825 0.99035 10.6405 0.647529 10.3877 0.394765C10.135 0.142001 9.79215 0 9.43468 0L1.34781 0Z" fill="#A8A7AC"/>
<path fill-rule="evenodd" clip-rule="evenodd" d="M2.02148 2.35844C2.02148 2.26907 2.05698 2.18337 2.12018 2.12018C2.18337 2.05698 2.26907 2.02148 2.35844 2.02148H8.42359C8.51296 2.02148 8.59866 2.05698 8.66185 2.12018C8.72504 2.18337 8.76054 2.26907 8.76054 2.35844C8.76054 2.4478 8.72504 2.53351 8.66185 2.5967C8.59866 2.65989 8.51296 2.69539 8.42359 2.69539H2.35844C2.26907 2.69539 2.18337 2.65989 2.12018 2.5967C2.05698 2.53351 2.02148 2.4478 2.02148 2.35844ZM2.02148 4.0432C2.02148 3.95384 2.05698 3.86813 2.12018 3.80494C2.18337 3.74175 2.26907 3.70625 2.35844 3.70625H8.42359C8.51296 3.70625 8.59866 3.74175 8.66185 3.80494C8.72504 3.86813 8.76054 3.95384 8.76054 4.0432C8.76054 4.13257 8.72504 4.21827 8.66185 4.28146C8.59866 4.34465 8.51296 4.38016 8.42359 4.38016H2.35844C2.26907 4.38016 2.18337 4.34465 2.12018 4.28146C2.05698 4.21827 2.02148 4.13257 2.02148 4.0432ZM2.02148 5.72797C2.02148 5.6386 2.05698 5.5529 2.12018 5.4897C2.18337 5.42651 2.26907 5.39101 2.35844 5.39101H5.72797C5.81733 5.39101 5.90304 5.42651 5.96623 5.4897C6.02942 5.5529 6.06492 5.6386 6.06492 5.72797C6.06492 5.81733 6.02942 5.90304 5.96623 5.96623C5.90304 6.02942 5.81733 6.06492 5.72797 6.06492H2.35844C2.26907 6.06492 2.18337 6.02942 2.12018 5.96623C2.05698 5.90304 2.02148 5.81733 2.02148 5.72797Z" fill="#A8A7AC"/>
</svg>
