<svg width="12" height="12" viewBox="0 0 12 12" fill="none" xmlns="http://www.w3.org/2000/svg">
<g clip-path="url(#clip0_329_1101)">
<path d="M11.7 5.19599C11.6997 5.19572 11.6994 5.19535 11.6991 5.19508L6.80404 0.300202C6.59539 0.0914614 6.31799 -0.0234375 6.02291 -0.0234375C5.72784 -0.0234375 5.45043 0.0914614 5.24169 0.300202L0.349195 5.19261C0.347547 5.19425 0.345808 5.19599 0.344251 5.19764C-0.0842164 5.62858 -0.083484 6.32777 0.346357 6.75761C0.542738 6.95408 0.802016 7.06779 1.07933 7.07979C1.09068 7.08089 1.10203 7.08144 1.11348 7.08144H1.30849V10.6837C1.30849 11.3966 1.88857 11.9766 2.60149 11.9766H4.51659C4.71078 11.9766 4.86816 11.8191 4.86816 11.625V8.8008C4.86816 8.47551 5.13283 8.21092 5.45812 8.21092H6.5877C6.91299 8.21092 7.17758 8.47551 7.17758 8.8008V11.625C7.17758 11.8191 7.33496 11.9766 7.52914 11.9766H9.44424C10.1573 11.9766 10.7372 11.3966 10.7372 10.6837V7.08144H10.9182C11.2131 7.08144 11.4905 6.96654 11.6994 6.7577C12.1297 6.32722 12.1299 5.62675 11.7 5.19599ZM11.2022 6.26057C11.1263 6.33647 11.0254 6.37831 10.9182 6.37831H10.3857C10.1915 6.37831 10.0341 6.53569 10.0341 6.72987V10.6837C10.0341 11.0089 9.76953 11.2735 9.44424 11.2735H7.8807V8.8008C7.8807 8.08788 7.30072 7.5078 6.5877 7.5078H5.45812C4.74511 7.5078 4.16503 8.08788 4.16503 8.8008V11.2735H2.60149C2.27629 11.2735 2.01161 11.0089 2.01161 10.6837V6.72987C2.01161 6.53569 1.85423 6.37831 1.66005 6.37831H1.13673C1.13124 6.37794 1.12584 6.37767 1.12025 6.37758C1.01552 6.37575 0.917281 6.33418 0.843672 6.26048C0.687117 6.10392 0.687117 5.84913 0.843672 5.69249C0.843764 5.69249 0.843764 5.69239 0.843856 5.6923L0.84413 5.69203L5.73901 0.797334C5.81481 0.721437 5.91561 0.679689 6.02291 0.679689C6.13012 0.679689 6.23092 0.721437 6.30682 0.797334L11.2006 5.69102C11.2013 5.69175 11.2022 5.69249 11.2029 5.69322C11.3586 5.85005 11.3583 6.10429 11.2022 6.26057Z" fill="#A8A7AC"/>
</g>
<defs>
<clipPath id="clip0_329_1101">
<rect width="12" height="12" fill="white"/>
</clipPath>
</defs>
</svg>
