<svg width="65" height="41" viewBox="0 0 65 41" fill="none" xmlns="http://www.w3.org/2000/svg">
<path d="M11.9688 36.8784V40.7779H11.4141V37.3241H9.41722L8.97346 39.7752C8.86252 40.4437 8.41877 40.7779 7.86407 40.7779H7.53125V40.2208H7.86407C8.19689 40.2208 8.41877 40.1094 8.52971 39.7752L9.0844 36.8784H11.9688Z" fill="white"/>
<path d="M13.6328 36.8784V40.1094L16.5173 36.8784H17.072V40.7779H16.5173V37.5469L13.6328 40.7779H13.0781V36.8784H13.6328Z" fill="white"/>
<path d="M18.8103 37.6355H21.7298V36.9897H18.1797V40.8892H18.8103V37.6355Z" fill="white"/>
<path d="M24.7266 36.8784L26.3907 40.7779H25.7622L25.4739 40.1094H22.8789L22.583 40.7779H21.9531L23.6172 36.8784H24.7266ZM23.0645 39.6638H25.2813L24.3938 37.3241H23.9564L23.0645 39.6638Z" fill="white"/>
<path d="M33.1555 36.8784V37.4355H30.1602V40.8893H29.6055V36.9898H33.1555V36.8784Z" fill="white"/>
<path d="M37.3727 36.8784V37.4355H34.4883V38.5496H37.1508V39.1067H34.4883V40.3322H37.4837V40.8893H33.9336V36.9898H37.3727V36.8784Z" fill="white"/>
<path d="M40.5914 36.8784C41.479 36.8784 42.1446 37.4355 42.1446 38.3268C42.1446 39.2181 41.479 39.7752 40.5914 39.7752H38.9274V40.7779H38.2617V36.8784H40.5914ZM38.9274 39.251H40.7024C41.368 39.251 41.5904 38.9953 41.5904 38.3268C41.5904 37.7697 41.2571 37.4355 40.7024 37.4355H38.9274V39.251Z" fill="white"/>
<path d="M45.1407 41.0003C43.9203 41.0003 42.9219 40.2204 42.9219 38.8835C42.9219 37.6579 43.9203 36.7666 45.1407 36.7666C46.361 36.7666 47.3595 37.5465 47.3595 38.8835C47.3595 40.109 46.361 41.0003 45.1407 41.0003ZM45.1407 40.4432C46.0282 40.4432 46.8048 39.8862 46.8048 38.8835C46.8048 37.8807 46.1391 37.3237 45.1407 37.3237C44.2532 37.3237 43.4766 37.8807 43.4766 38.8835C43.4766 39.8862 44.2532 40.4432 45.1407 40.4432Z" fill="white"/>
<path d="M51.6852 36.8784V37.4355H48.8008V38.5496H51.4633V39.1067H48.8008V40.3322H51.7962V40.8893H48.2461V36.9898H51.6852V36.8784Z" fill="white"/>
<path d="M55.1243 36.9897C55.7899 36.9897 56.3446 37.324 56.3446 37.8811C56.3446 38.2153 56.2337 38.4381 56.0118 38.6609C56.4555 38.7724 56.6774 39.218 56.6774 39.6637C56.6774 40.3321 56.1227 40.8892 55.3461 40.8892H52.6836V36.9897L55.1243 36.9897ZM53.2383 38.5495H55.2352C55.568 38.5495 55.7899 38.3267 55.7899 37.9925C55.7899 37.6582 55.4905 37.4354 55.1243 37.4354H53.2383V38.5495ZM53.2383 40.3321H55.2352C55.7899 40.3321 56.0118 39.9979 56.0118 39.6637C56.0118 39.218 55.7899 38.9952 55.3461 38.9952H53.1274V40.3321H53.2383Z" fill="white"/>
<path d="M28.4005 30.4159L26.8474 29.9702L24.7395 27.7419L28.1787 28.6332L29.0662 29.3017V27.6305L22.2989 20.1658L25.4052 19.943L5.10322 1.55979L7.32201 6.6848L0 0L7.98765 13.481L11.4268 16.4892L12.4252 18.9403L9.98457 16.712L15.0878 25.2908L21.1895 26.8506L25.5161 30.7501H28.5115L29.0662 32.3099V30.7501L30.5084 30.3045L28.4005 30.4159Z" fill="white"/>
<path d="M35.8321 30.4159L37.3852 29.9702L39.3821 27.7419L35.943 28.6332L35.1664 29.3017V27.6305L41.9338 20.1658L38.7165 19.943L59.0185 1.55979L56.9106 6.6848L64.2326 0L56.134 13.481L52.8058 16.4892L51.6964 18.9403L54.248 16.712L49.0339 25.2908L43.0431 26.8506L38.7165 30.7501H35.7211L35.1664 32.3099V30.7501L33.6133 30.3045L35.8321 30.4159Z" fill="white"/>
<path d="M28.4005 30.4159L26.8474 29.9702L24.7395 27.7419L28.1787 28.6332L29.0662 29.3017V27.6305L22.2989 20.1658L25.4052 19.943L5.10322 1.55979L7.32201 6.6848L0 0L7.98765 13.481L11.4268 16.4892L12.4252 18.9403L9.98457 16.712L15.0878 25.2908L21.1895 26.8506L25.5161 30.7501H28.5115L29.0662 32.3099V30.7501L30.5084 30.3045L28.4005 30.4159Z" fill="white"/>
<path d="M35.8321 30.4159L37.3852 29.9702L39.3821 27.7419L35.943 28.6332L35.1664 29.3017V27.6305L41.9338 20.1658L38.7165 19.943L59.0185 1.55979L56.9106 6.6848L64.2326 0L56.134 13.481L52.8058 16.4892L51.6964 18.9403L54.248 16.712L49.0339 25.2908L43.0431 26.8506L38.7165 30.7501H35.7211L35.1664 32.3099V30.7501L33.6133 30.3045L35.8321 30.4159Z" fill="white"/>
</svg>
