<svg width="12" height="12" viewBox="0 0 12 12" fill="none" xmlns="http://www.w3.org/2000/svg">
<mask id="path-1-inside-1_329_1056" fill="white">
<path d="M11.9721 9.42567C11.9238 9.19336 11.6963 9.04423 11.4639 9.0926C11.2315 9.14096 11.0824 9.36852 11.1308 9.60083C11.1587 9.73466 11.1255 9.87181 11.0398 9.97721C10.9902 10.0383 10.8795 10.1406 10.6961 10.1406H2.30394C2.12051 10.1406 2.00984 10.0382 1.96022 9.97721C1.87451 9.87183 1.84134 9.73466 1.86921 9.60083C2.31514 7.45895 4.20437 5.89432 6.38609 5.84156C6.42388 5.84302 6.46184 5.84375 6.5 5.84375C6.53828 5.84375 6.5764 5.843 6.61434 5.84154C8.15116 5.8784 9.57162 6.65681 10.4318 7.9397C10.564 8.13682 10.8309 8.18946 11.028 8.05731C11.2251 7.92516 11.2778 7.65823 11.1456 7.46114C10.4406 6.40961 9.41676 5.64498 8.24943 5.26077C8.96078 4.72734 9.42188 3.87744 9.42188 2.92188C9.42188 1.31076 8.11114 0 6.5 0C4.88886 0 3.57812 1.31076 3.57812 2.92188C3.57812 3.87802 4.03978 4.72837 4.75188 5.26176C4.09944 5.47656 3.48724 5.81079 2.95142 6.25152C1.9689 7.0597 1.28576 8.18696 1.02788 9.42567C0.947054 9.81383 1.04388 10.2125 1.29349 10.5194C1.54187 10.8248 1.91018 11 2.30394 11H10.696C11.0898 11 11.4581 10.8248 11.7065 10.5194C11.9561 10.2125 12.0529 9.81383 11.9721 9.42567ZM4.4375 2.92188C4.4375 1.7846 5.36272 0.859375 6.5 0.859375C7.63728 0.859375 8.5625 1.7846 8.5625 2.92188C8.5625 4.02413 7.69335 4.92721 6.60439 4.98175C6.56965 4.98111 6.53485 4.98079 6.5 4.98079C6.46532 4.98079 6.43065 4.98113 6.39601 4.98178C5.30686 4.92744 4.4375 4.02428 4.4375 2.92188Z"/>
</mask>
<path d="M11.9721 9.42567C11.9238 9.19336 11.6963 9.04423 11.4639 9.0926C11.2315 9.14096 11.0824 9.36852 11.1308 9.60083C11.1587 9.73466 11.1255 9.87181 11.0398 9.97721C10.9902 10.0383 10.8795 10.1406 10.6961 10.1406H2.30394C2.12051 10.1406 2.00984 10.0382 1.96022 9.97721C1.87451 9.87183 1.84134 9.73466 1.86921 9.60083C2.31514 7.45895 4.20437 5.89432 6.38609 5.84156C6.42388 5.84302 6.46184 5.84375 6.5 5.84375C6.53828 5.84375 6.5764 5.843 6.61434 5.84154C8.15116 5.8784 9.57162 6.65681 10.4318 7.9397C10.564 8.13682 10.8309 8.18946 11.028 8.05731C11.2251 7.92516 11.2778 7.65823 11.1456 7.46114C10.4406 6.40961 9.41676 5.64498 8.24943 5.26077C8.96078 4.72734 9.42188 3.87744 9.42188 2.92188C9.42188 1.31076 8.11114 0 6.5 0C4.88886 0 3.57812 1.31076 3.57812 2.92188C3.57812 3.87802 4.03978 4.72837 4.75188 5.26176C4.09944 5.47656 3.48724 5.81079 2.95142 6.25152C1.9689 7.0597 1.28576 8.18696 1.02788 9.42567C0.947054 9.81383 1.04388 10.2125 1.29349 10.5194C1.54187 10.8248 1.91018 11 2.30394 11H10.696C11.0898 11 11.4581 10.8248 11.7065 10.5194C11.9561 10.2125 12.0529 9.81383 11.9721 9.42567ZM4.4375 2.92188C4.4375 1.7846 5.36272 0.859375 6.5 0.859375C7.63728 0.859375 8.5625 1.7846 8.5625 2.92188C8.5625 4.02413 7.69335 4.92721 6.60439 4.98175C6.56965 4.98111 6.53485 4.98079 6.5 4.98079C6.46532 4.98079 6.43065 4.98113 6.39601 4.98178C5.30686 4.92744 4.4375 4.02428 4.4375 2.92188Z" fill="#1A191F"/>
<path d="M11.9721 9.42567L10.9931 9.62947L10.9931 9.62952L11.9721 9.42567ZM11.4639 9.0926L11.2601 8.11357L11.2601 8.11358L11.4639 9.0926ZM11.1308 9.60083L12.1098 9.39698L12.1098 9.39694L11.1308 9.60083ZM11.0398 9.97721L11.8157 10.6081L11.8158 10.608L11.0398 9.97721ZM1.96022 9.97721L1.18439 10.6082L1.18444 10.6082L1.96022 9.97721ZM1.86921 9.60083L2.84821 9.80468L2.84822 9.80466L1.86921 9.60083ZM6.38609 5.84156L6.42472 4.84231L6.39332 4.84109L6.36191 4.84185L6.38609 5.84156ZM6.61434 5.84154L6.63832 4.84183L6.60708 4.84108L6.57586 4.84228L6.61434 5.84154ZM10.4318 7.9397L11.2625 7.38285L11.2624 7.38278L10.4318 7.9397ZM11.028 8.05731L11.5848 8.88795L11.5849 8.88789L11.028 8.05731ZM11.1456 7.46114L10.315 8.01804L10.3151 8.01809L11.1456 7.46114ZM8.24943 5.26077L7.64949 4.46073L6.11537 5.61116L7.9368 6.21065L8.24943 5.26077ZM4.75188 5.26176L5.06459 6.21161L6.88699 5.61162L5.35139 4.46139L4.75188 5.26176ZM2.95142 6.25152L2.31617 5.47922L2.31616 5.47922L2.95142 6.25152ZM1.02788 9.42567L2.00688 9.62952L2.00689 9.62948L1.02788 9.42567ZM1.29349 10.5194L2.06932 9.88848L2.06932 9.88848L1.29349 10.5194ZM11.7065 10.5194L10.9307 9.88841L10.9306 9.88851L11.7065 10.5194ZM6.60439 4.98175L6.58584 5.98158L6.62015 5.98222L6.65442 5.9805L6.60439 4.98175ZM6.39601 4.98178L6.34619 5.98053L6.38039 5.98224L6.41462 5.9816L6.39601 4.98178ZM12.9511 9.22186C12.7902 8.4488 12.0331 7.95271 11.2601 8.11357L11.6676 10.0716C11.3594 10.1358 11.0573 9.93791 10.9931 9.62947L12.9511 9.22186ZM11.2601 8.11358C10.487 8.2745 9.9908 9.03169 10.1518 9.80472L12.1098 9.39694C12.174 9.70535 11.9761 10.0074 11.6677 10.0716L11.2601 8.11358ZM10.1518 9.80468C10.1187 9.64585 10.1585 9.47606 10.2638 9.34644L11.8158 10.608C12.0925 10.2676 12.1986 9.82346 12.1098 9.39698L10.1518 9.80468ZM10.2639 9.34634C10.2932 9.31029 10.3406 9.26109 10.4132 9.21863C10.493 9.17194 10.5921 9.14062 10.6961 9.14062V11.1406C11.2949 11.1406 11.6625 10.7965 11.8157 10.6081L10.2639 9.34634ZM10.6961 9.14062H2.30394V11.1406H10.6961V9.14062ZM2.30394 9.14062C2.40798 9.14062 2.50703 9.17196 2.58682 9.21863C2.6594 9.26109 2.70675 9.31026 2.73599 9.34621L1.18444 10.6082C1.33745 10.7963 1.70505 11.1406 2.30394 11.1406V9.14062ZM2.73604 9.34627C2.84163 9.47611 2.88125 9.64601 2.84821 9.80468L0.890205 9.39698C0.801436 9.82331 0.907394 10.2676 1.18439 10.6082L2.73604 9.34627ZM2.84822 9.80466C3.19893 8.12011 4.69059 6.88286 6.41027 6.84127L6.36191 4.84185C3.71814 4.90579 1.43135 6.79778 0.8902 9.39701L2.84822 9.80466ZM6.34746 6.84081C6.39823 6.84278 6.44908 6.84375 6.5 6.84375V4.84375C6.47461 4.84375 6.44952 4.84326 6.42472 4.84231L6.34746 6.84081ZM6.5 6.84375C6.55138 6.84375 6.60232 6.84274 6.65281 6.8408L6.57586 4.84228C6.55047 4.84326 6.52519 4.84375 6.5 4.84375V6.84375ZM6.59036 6.84125C7.80211 6.87032 8.92188 7.4834 9.60127 8.49662L11.2624 7.38278C10.2214 5.83021 8.50021 4.88649 6.63832 4.84183L6.59036 6.84125ZM9.60122 8.49655C10.041 9.15253 10.9291 9.32751 11.5848 8.88795L10.4712 7.22667C10.7327 7.0514 11.087 7.12111 11.2625 7.38285L9.60122 8.49655ZM11.5849 8.88789C12.2407 8.44819 12.416 7.56004 11.9762 6.90418L10.3151 8.01809C10.1396 7.75643 10.2095 7.40212 10.4711 7.22672L11.5849 8.88789ZM11.9762 6.90423C11.1459 5.66595 9.93901 4.76409 8.56206 4.3109L7.9368 6.21065C8.89452 6.52586 9.7352 7.15326 10.315 8.01804L11.9762 6.90423ZM8.84938 6.06081C9.80084 5.34732 10.4219 4.20659 10.4219 2.92188H8.42188C8.42188 3.54828 8.12072 4.10735 7.64949 4.46073L8.84938 6.06081ZM10.4219 2.92188C10.4219 0.758481 8.66342 -1 6.5 -1V1C7.55885 1 8.42188 1.86304 8.42188 2.92188H10.4219ZM6.5 -1C4.33657 -1 2.57812 0.758481 2.57812 2.92188H4.57812C4.57812 1.86304 5.44115 1 6.5 1V-1ZM2.57812 2.92188C2.57812 4.20738 3.19992 5.3487 4.15237 6.06213L5.35139 4.46139C4.87964 4.10803 4.57812 3.54865 4.57812 2.92188H2.57812ZM4.43916 4.31191C3.67082 4.56487 2.94894 4.95875 2.31617 5.47922L3.58667 7.02383C4.02555 6.66284 4.52806 6.38825 5.06459 6.21161L4.43916 4.31191ZM2.31616 5.47922C1.15868 6.43131 0.353478 7.75868 0.0488687 9.22185L2.00689 9.62948C2.21803 8.61525 2.77911 7.68809 3.58668 7.02382L2.31616 5.47922ZM0.0488769 9.22182C-0.0931547 9.90392 0.0776937 10.6094 0.517659 11.1504L2.06932 9.88848C2.01007 9.81562 1.98726 9.72373 2.00688 9.62952L0.0488769 9.22182ZM0.517657 11.1504C0.956004 11.6894 1.60932 12 2.30394 12V10C2.21104 10 2.12774 9.96031 2.06932 9.88848L0.517657 11.1504ZM2.30394 12H10.696V10H2.30394V12ZM10.696 12C11.3907 12 12.044 11.6894 12.4823 11.1503L10.9306 9.88851C10.8723 9.9603 10.789 10 10.696 10V12ZM12.4823 11.1504C12.9223 10.6094 13.0931 9.90389 12.9511 9.22182L10.9931 9.62952C11.0127 9.72376 10.9899 9.81561 10.9307 9.88841L12.4823 11.1504ZM5.4375 2.92188C5.4375 2.33689 5.91501 1.85938 6.5 1.85938V-0.140625C4.81044 -0.140625 3.4375 1.23231 3.4375 2.92188H5.4375ZM6.5 1.85938C7.08499 1.85938 7.5625 2.33689 7.5625 2.92188H9.5625C9.5625 1.23231 8.18956 -0.140625 6.5 -0.140625V1.85938ZM7.5625 2.92188C7.5625 3.48836 7.11408 3.95497 6.55436 3.98301L6.65442 5.9805C8.27262 5.89944 9.5625 4.5599 9.5625 2.92188H7.5625ZM6.62294 3.98193C6.582 3.98117 6.54102 3.98079 6.5 3.98079V5.98079C6.52868 5.98079 6.5573 5.98105 6.58584 5.98158L6.62294 3.98193ZM6.5 3.98079C6.45872 3.98079 6.41783 3.9812 6.37741 3.98195L6.41462 5.9816C6.44346 5.98107 6.47192 5.98079 6.5 5.98079V3.98079ZM6.44584 3.98302C5.88603 3.95509 5.4375 3.48845 5.4375 2.92188H3.4375C3.4375 4.56011 4.7277 5.89979 6.34619 5.98053L6.44584 3.98302Z" fill="#A8A7AC" mask="url(#path-1-inside-1_329_1056)"/>
</svg>
