<svg width="12" height="12" viewBox="0 0 12 12" fill="none" xmlns="http://www.w3.org/2000/svg">
<path d="M10.875 5.25C10.9745 5.25 11.0698 5.21049 11.1402 5.14016C11.2105 5.06984 11.25 4.97446 11.25 4.875V3C11.25 2.80109 11.171 2.61032 11.0303 2.46967C10.8897 2.32902 10.6989 2.25 10.5 2.25H1.5C1.30109 2.25 1.11032 2.32902 0.96967 2.46967C0.829018 2.61032 0.75 2.80109 0.75 3V4.875C0.75 4.97446 0.789509 5.06984 0.859835 5.14016C0.930161 5.21049 1.02554 5.25 1.125 5.25C1.32391 5.25 1.51468 5.32902 1.65533 5.46967C1.79598 5.61032 1.875 5.80109 1.875 6C1.875 6.19891 1.79598 6.38968 1.65533 6.53033C1.51468 6.67098 1.32391 6.75 1.125 6.75C1.02554 6.75 0.930161 6.78951 0.859835 6.85983C0.789509 6.93016 0.75 7.02554 0.75 7.125V9C0.75 9.19891 0.829018 9.38968 0.96967 9.53033C1.11032 9.67098 1.30109 9.75 1.5 9.75H10.5C10.6989 9.75 10.8897 9.67098 11.0303 9.53033C11.171 9.38968 11.25 9.19891 11.25 9V7.125C11.25 7.02554 11.2105 6.93016 11.1402 6.85983C11.0698 6.78951 10.9745 6.75 10.875 6.75C10.6761 6.75 10.4853 6.67098 10.3447 6.53033C10.204 6.38968 10.125 6.19891 10.125 6C10.125 5.80109 10.204 5.61032 10.3447 5.46967C10.4853 5.32902 10.6761 5.25 10.875 5.25ZM10.5 7.45125V9H7.875V7.875H7.125V9H1.5V7.45125C1.821 7.36735 2.10512 7.1794 2.30791 6.9168C2.51069 6.6542 2.62069 6.33178 2.62069 6C2.62069 5.66822 2.51069 5.3458 2.30791 5.0832C2.10512 4.8206 1.821 4.63265 1.5 4.54875V3H7.125V4.125H7.875V3H10.5V4.54875C10.179 4.63265 9.89488 4.8206 9.69209 5.0832C9.48931 5.3458 9.37931 5.66822 9.37931 6C9.37931 6.33178 9.48931 6.6542 9.69209 6.9168C9.89488 7.1794 10.179 7.36735 10.5 7.45125Z" fill="#A8A7AC"/>
<path d="M7.125 4.875H7.875V7.125H7.125V4.875Z" fill="#A8A7AC"/>
</svg>
