<svg width="12" height="12" viewBox="0 0 12 12" fill="none" xmlns="http://www.w3.org/2000/svg">
<path d="M5.625 4.125H6.375V7.5H5.625V4.125Z" fill="#A8A7AC"/>
<path d="M4.875 0.75H7.125V1.5H4.875V0.75Z" fill="#A8A7AC"/>
<path d="M10.5 3.37492L9.96754 2.84617L9.12379 3.68992C8.43311 2.89231 7.46169 2.39146 6.41135 2.29144C5.36101 2.19141 4.31252 2.49991 3.48371 3.15282C2.65491 3.80574 2.10952 4.75288 1.96086 5.79744C1.8122 6.84201 2.07171 7.90369 2.68546 8.7619C3.29921 9.62011 4.22002 10.2089 5.25656 10.4058C6.2931 10.6028 7.36568 10.3928 8.25145 9.81958C9.13722 9.24632 9.76807 8.35383 10.0129 7.32754C10.2578 6.30126 10.0978 5.22009 9.56629 4.30867L10.5 3.37492ZM6.00004 9.74992C5.33253 9.74992 4.68 9.55198 4.12499 9.18113C3.56997 8.81028 3.13739 8.28318 2.88195 7.66648C2.6265 7.04978 2.55966 6.37118 2.68989 5.71649C2.82011 5.0618 3.14155 4.46044 3.61355 3.98844C4.08556 3.51643 4.68692 3.195 5.34161 3.06477C5.99629 2.93455 6.67489 3.00138 7.29159 3.25683C7.9083 3.51227 8.4354 3.94485 8.80625 4.49987C9.1771 5.05489 9.37504 5.70741 9.37504 6.37492C9.37504 7.27003 9.01946 8.12847 8.38652 8.76141C7.75359 9.39434 6.89514 9.74992 6.00004 9.74992Z" fill="#A8A7AC"/>
</svg>
