<svg width="95" height="48" viewBox="0 0 95 48" fill="none" xmlns="http://www.w3.org/2000/svg">
<path d="M93.8388 21.7407H0.417969V26.3352H93.8388V21.7407Z" fill="#D4161E"/>
<path d="M11.234 17.8162H7.11816V0.586914H19.7529V4.03276H11.3298V17.8162H11.234Z" fill="white"/>
<path d="M36.6957 13.1258C36.6957 14.8487 36.3128 16.093 35.5471 16.8588C34.7814 17.6245 33.6327 18.0074 32.0055 18.0074H26.2625C24.6352 18.0074 23.4866 17.6245 22.7209 16.8588C21.9551 16.093 21.5723 14.8487 21.5723 13.1258V5.18118C21.5723 3.45826 21.9551 2.21392 22.7209 1.44817C23.4866 0.68243 24.6352 0.299561 26.2625 0.299561H32.1013C33.7285 0.299561 34.8771 0.68243 35.6428 1.44817C36.4086 2.21392 36.7914 3.45826 36.7914 5.18118V13.1258H36.6957ZM32.5798 5.2769C32.5798 4.31972 32.1013 3.84113 31.1441 3.84113H27.2196C26.2625 3.84113 25.7839 4.31972 25.7839 5.2769V13.2215C25.7839 14.1787 26.2625 14.6573 27.2196 14.6573H31.1441C32.1013 14.6573 32.5798 14.1787 32.5798 13.2215V5.2769Z" fill="white"/>
<path d="M53.4465 17.8162H49.235V10.733H43.4919V17.8162H39.2803V0.586914H43.4919V7.38289H49.235V0.586914H53.4465V17.8162Z" fill="white"/>
<path d="M65.9859 9.10562L70.4847 17.9117H66.0816L62.4443 10.8285H60.3385V17.9117H56.127V0.586714H60.3385V7.38269H62.4443L64.7416 2.69251C65.1244 2.02249 65.5073 1.44817 65.9859 0.969584C66.4645 0.490994 67.1345 0.299561 67.996 0.299561C68.2831 0.299561 68.4746 0.299561 68.7617 0.299561C69.0489 0.299561 69.2403 0.395277 69.4318 0.395277C69.6232 0.490995 69.9104 0.490994 70.1018 0.490994V3.84113H69.1446C68.9532 3.84113 68.666 3.93684 68.4746 4.03256C68.2831 4.224 68.1874 4.31972 68.0917 4.51115L65.9859 9.10562Z" fill="white"/>
<path d="M76.323 17.8162H71.8242L77.9502 0.586914H82.5446L88.6706 17.9119H84.1718L83.119 14.8489H77.2802L76.323 17.8162ZM78.4288 11.5945H82.1618L80.3431 5.75569L78.4288 11.5945Z" fill="white"/>
<path d="M4.82097 47.7757H0.609375V30.4507H13.2442V33.8965H4.82097V47.7757Z" fill="white"/>
<path d="M28.2725 47.7757H15.4463V30.4507H28.3682V33.8965H19.5622V37.2467H26.4539V40.6925H19.5622V44.2341H28.2725V47.7757Z" fill="white"/>
<path d="M30.5703 30.4507H40.3336C41.9608 30.4507 43.1094 30.8336 43.8751 31.5993C44.6409 32.365 45.0237 33.6094 45.0237 35.3323V37.821C45.0237 39.5439 44.6409 40.7882 43.8751 41.554C43.1094 42.3197 41.9608 42.7026 40.3336 42.7026H34.7819V47.7757H30.5703V30.4507ZM40.8121 35.428C40.8121 34.4708 40.3336 33.9922 39.3764 33.9922H34.7819V39.4482H39.3764C40.3336 39.4482 40.8121 38.9696 40.8121 38.0124V35.428Z" fill="white"/>
<path d="M62.1557 43.0855C62.1557 44.8084 61.7728 46.0528 61.0071 46.8185C60.2413 47.5842 59.0927 47.9671 57.4655 47.9671H51.6267C49.9995 47.9671 48.8509 47.5842 48.0851 46.8185C47.3194 46.0528 46.9365 44.8084 46.9365 43.0855V35.1409C46.9365 33.418 47.3194 32.1736 48.0851 31.4079C48.8509 30.6422 49.9995 30.2593 51.6267 30.2593H57.4655C59.0927 30.2593 60.2413 30.6422 61.0071 31.4079C61.7728 32.1736 62.1557 33.418 62.1557 35.1409V43.0855ZM58.0398 35.1409C58.0398 34.1837 57.5612 33.7051 56.604 33.7051H52.6796C51.7224 33.7051 51.2438 34.1837 51.2438 35.1409V43.0855C51.2438 44.0427 51.7224 44.5213 52.6796 44.5213H56.604C57.5612 44.5213 58.0398 44.0427 58.0398 43.0855V35.1409Z" fill="white"/>
<path d="M77.5674 47.7757H64.7412V30.4507H77.6631V33.8965H68.9528V37.2467H75.8445V40.6925H68.9528V44.2341H77.6631V47.7757H77.5674Z" fill="white"/>
<path d="M79.8652 30.4507H89.1499C90.6814 30.4507 91.7343 30.8336 92.5 31.5036C93.17 32.2693 93.5529 33.3222 93.5529 34.8537C93.5529 35.8109 93.3615 36.6724 92.9786 37.2467C92.5957 37.821 92.1171 38.2996 91.4471 38.5867C91.83 38.6824 92.1171 38.8739 92.5 39.0653C92.8829 39.2567 93.17 39.5439 93.3615 39.9268C93.6486 40.3096 93.8401 40.6925 94.0315 41.2668C94.2229 41.7454 94.3187 42.4154 94.3187 43.0855C94.3187 44.7127 93.9358 45.8613 93.2658 46.627C92.5 47.3928 91.3514 47.7757 89.8199 47.7757H79.8652V30.4507ZM89.3413 35.428C89.3413 34.4708 88.8627 33.9922 87.9056 33.9922H83.9811V37.4381H87.9056C88.8627 37.4381 89.3413 36.9595 89.3413 36.0023V35.428ZM90.1071 42.3197C90.1071 41.3625 89.6285 40.884 88.6713 40.884H84.0768V44.3298H88.6713C89.6285 44.3298 90.1071 43.8512 90.1071 42.894V42.3197Z" fill="white"/>
</svg>
