<svg width="112" height="55" viewBox="0 0 112 55" fill="none" xmlns="http://www.w3.org/2000/svg">
<path d="M60.758 5.52859C60.3345 5.12979 59.5581 5.12979 59.1345 5.52859L57.2288 7.32319C56.8053 7.72199 56.8053 8.45312 57.2288 8.85192C57.4405 9.05132 57.7229 9.18425 58.0052 9.18425C58.2875 9.18425 58.5699 9.05132 58.7816 8.85192L60.6874 7.05732C61.2521 6.59206 61.2521 5.92739 60.758 5.52859Z" fill="#CC2128"/>
<path d="M37.0413 26.2669C36.6178 26.6657 36.6178 27.3968 37.0413 27.7956C37.253 27.995 37.5354 28.128 37.8177 28.128C38.1 28.128 38.3824 27.995 38.5941 27.7956L38.8765 27.5298C38.7353 26.6657 38.5941 25.8016 38.4529 24.8711L37.0413 26.2669Z" fill="#CC2128"/>
<path d="M53.3462 10.9793L43.3232 20.4175C43.4644 21.2816 43.6762 22.1457 43.8173 23.0097L54.9697 12.508C55.3932 12.1092 55.3932 11.3781 54.9697 10.9793C54.4756 10.5805 53.7697 10.5805 53.3462 10.9793Z" fill="#CC2128"/>
<path d="M8.59598 42.6158C8.59598 42.0841 8.59598 41.4859 8.52539 40.9541C8.52539 39.0266 8.52539 37.0991 8.52539 35.1051C8.52539 34.9057 8.52539 34.7063 8.52539 34.5069C10.1488 34.5069 11.7017 34.5069 13.3251 34.5069C13.3251 35.7697 13.3251 36.9661 13.3251 38.2955C13.8192 38.2955 14.3133 38.2955 14.8074 38.2955C15.6544 38.2955 16.5014 38.2955 17.419 38.2955C18.4778 38.2955 19.113 37.6973 19.113 36.7003C19.113 34.241 19.113 31.7817 19.113 29.3225C19.113 28.259 18.5484 27.7273 17.419 27.7273C16.0073 27.7273 14.5957 27.7273 13.184 27.7273C12.9722 27.7273 12.831 27.7273 12.6193 27.7273C12.6193 27.5943 12.6193 27.5279 12.6193 27.3949C12.6193 26.0656 12.6193 24.8028 12.6193 23.4734C12.831 23.4734 13.0428 23.4734 13.184 23.4734C14.5957 23.4734 16.0073 23.4734 17.419 23.4734C18.266 23.4734 18.9013 22.9417 18.9013 22.1441C18.9013 20.2166 18.9013 18.3555 18.9013 16.428C18.9013 15.6968 18.3366 15.0986 17.4896 15.0986C16.1485 15.0986 14.8074 15.0986 13.3957 15.0986C13.3957 16.3615 13.3957 17.6244 13.3957 18.8872C11.7723 18.8872 10.2194 18.8872 8.59598 18.8872C8.59598 16.2286 8.59598 13.5699 8.59598 10.8448C8.73715 10.8448 8.80773 10.7783 8.9489 10.7783C12.4075 10.7783 15.8662 10.7783 19.2542 10.7783C20.5953 10.7783 21.9364 11.0442 22.9952 11.8418C24.1245 12.6394 24.7598 13.7028 24.7598 15.0322C24.8304 17.6244 24.7598 20.2166 24.7598 22.8752C24.7598 24.0052 24.1245 24.8692 23.1364 25.4674C23.0658 25.5339 22.9952 25.5339 22.9246 25.6668C24.6186 26.4644 25.0421 27.7937 25.0421 29.4554C25.0421 32.1141 25.0421 34.8392 25.0421 37.4979C25.0421 40.4889 23.4893 42.1505 20.313 42.6158C20.2424 42.6158 20.1718 42.6822 20.1012 42.6822C16.2897 42.6158 12.4075 42.6158 8.59598 42.6158Z" fill="white"/>
<path d="M27.1592 42.617C28.9944 33.4446 30.759 24.2722 32.5942 15.0334C31.7472 15.0334 30.9002 15.0334 30.0531 15.0334C30.0531 13.5711 30.0531 12.1753 30.0531 10.7795C33.8647 10.7795 37.6763 10.7795 41.4878 10.7795C41.6996 11.7765 41.9113 12.84 42.0525 13.837C43.1818 19.5531 44.2406 25.2692 45.37 31.0518C46.0758 34.774 46.7816 38.4296 47.4875 42.1517C47.4875 42.2847 47.4875 42.4841 47.4875 42.617C45.5111 42.617 43.5348 42.617 41.4878 42.617C41.2055 41.0218 40.9231 39.4931 40.7114 37.8979C40.6408 37.5655 40.5702 37.4326 40.2173 37.4326C38.3115 37.4326 36.4763 37.4326 34.5705 37.4326C34.4294 37.4326 34.2882 37.4326 34.147 37.4326C34.0764 37.9643 33.9353 38.4961 33.8647 39.0278C33.6529 40.2242 33.5118 41.3541 33.3 42.5505C31.2531 42.617 29.2061 42.617 27.1592 42.617ZM37.4645 18.5561H37.3939C36.5469 23.4082 35.6999 28.2602 34.9235 33.1123C36.6175 33.1123 38.3115 33.1123 39.935 33.1123C39.0879 28.2602 38.3115 23.4082 37.4645 18.5561Z" fill="white"/>
<path d="M75.368 27.396C75.368 25.4685 74.3093 24.0727 72.4035 23.3415C71.4153 22.9427 70.4271 22.8763 69.3684 22.8763C67.6744 22.8763 65.9803 22.8763 64.2863 22.8763C64.0745 22.8763 63.9334 22.8763 63.7216 22.8763C63.7216 20.2176 63.7216 17.6254 63.7216 14.9667C67.2508 14.9667 70.7801 14.9667 74.2387 14.9667C74.2387 13.5045 74.2387 12.1087 74.2387 10.7129C68.7331 10.7129 63.2275 10.7129 57.6514 10.7129C57.6514 21.3475 57.6514 31.9157 57.6514 42.5504C61.8864 42.5504 66.1921 42.5504 70.4271 42.5504C70.5683 42.5504 70.7095 42.4839 70.8506 42.4839C73.5328 42.1516 75.2975 40.4899 75.2975 38.0306C75.4386 34.5079 75.4386 30.9852 75.368 27.396ZM69.3684 36.7678C69.3684 37.6318 68.8037 38.23 67.8861 38.23C66.4744 38.23 65.1333 38.23 63.651 38.23C63.651 34.5079 63.651 30.9187 63.651 27.1966C64.004 27.1966 64.2863 27.1966 64.6392 27.1966C65.698 27.1966 66.7567 27.1966 67.7449 27.1966C68.6625 27.1966 69.2978 27.7948 69.2978 28.6589C69.3684 31.384 69.3684 34.1091 69.3684 36.7678Z" fill="white"/>
<path d="M79.7451 42.617C79.7451 32.0488 79.7451 21.4142 79.7451 10.7795C84.3331 10.7795 88.9211 10.7795 93.5091 10.7795C93.5091 12.1753 93.5091 13.5711 93.5091 15.0334C90.968 15.0334 88.3564 15.0334 85.7448 15.0334C85.7448 17.6921 85.7448 20.2843 85.7448 22.9429C87.9329 22.9429 90.1916 22.9429 92.4503 22.9429C92.4503 24.4052 92.4503 25.801 92.4503 27.2632C90.1916 27.2632 88.0035 27.2632 85.7448 27.2632C85.7448 30.9854 85.7448 34.641 85.7448 38.2967C88.3564 38.2967 90.8974 38.2967 93.5091 38.2967C93.5091 39.7589 93.5091 41.2212 93.5091 42.617C88.9211 42.617 84.3331 42.617 79.7451 42.617Z" fill="white"/>
<path d="M97.3906 42.617C97.3906 32.0488 97.3906 21.4142 97.3906 10.7795C101.979 10.7795 106.567 10.7795 111.155 10.7795C111.155 12.1753 111.155 13.5711 111.155 15.0334C108.614 15.0334 106.002 15.0334 103.39 15.0334C103.39 24.2722 103.39 33.4446 103.39 42.617C101.343 42.617 99.367 42.617 97.3906 42.617Z" fill="white"/>
<path d="M41.9827 37.1009C41.7004 37.1009 41.4181 36.968 41.2063 36.7686C40.7828 36.3698 40.7828 35.6387 41.2063 35.2399L43.1121 33.4453C43.5356 33.0465 44.312 33.0465 44.7355 33.4453C45.159 33.8441 45.159 34.5752 44.7355 34.974L42.8298 36.7686C42.618 36.968 42.2651 37.1009 41.9827 37.1009ZM47.8412 31.5842C47.5589 31.5842 47.2766 31.4513 47.0648 31.2519C46.6413 30.8531 46.6413 30.122 47.0648 29.7232L59.6288 17.8921C60.0523 17.4933 60.8288 17.4933 61.2523 17.8921C61.6758 18.2909 61.6758 19.0221 61.2523 19.4208L48.6882 31.2519C48.4059 31.5178 48.1236 31.5842 47.8412 31.5842Z" fill="#CC2128"/>
<path d="M57.6527 13.3059L32.0305 37.4333C31.607 37.8321 31.607 38.5632 32.0305 38.962C32.2423 39.1614 32.5246 39.2943 32.807 39.2943C33.0893 39.2943 33.3716 39.1614 33.5834 38.962L57.5821 16.3634C57.6527 15.3664 57.6527 14.3029 57.6527 13.3059Z" fill="#CC2128"/>
<path d="M63.6522 10.7796L72.9693 2.00605C73.3928 1.60725 73.3928 0.876121 72.9693 0.477322C72.5458 0.0785229 71.7694 0.0785229 71.3458 0.477322L60.4053 10.7796C61.464 10.7796 62.5228 10.7796 63.6522 10.7796Z" fill="#CC2128"/>
<path d="M90.5449 49.9949C90.5449 49.3967 91.1096 48.865 91.7448 48.865C92.3801 48.865 92.9448 49.3967 92.9448 49.9949C92.9448 50.5931 92.3801 51.1249 91.7448 51.1249C91.039 51.1249 90.5449 50.6596 90.5449 49.9949Z" fill="#929496"/>
<path d="M99.9334 45.4085C99.9334 44.5445 99.4393 43.9463 98.5217 43.8798C97.8865 43.8133 97.2512 43.8133 96.616 43.8133C96.4042 43.8133 96.263 43.8133 96.0513 43.8133C96.0513 43.6139 96.0513 43.4145 96.0513 43.1487C95.416 43.3481 94.8514 43.5475 94.2161 43.8133C94.1455 43.8133 94.1455 43.9463 94.1455 44.0127C94.1455 47.2031 94.1455 50.3935 94.1455 53.5839C94.1455 53.7169 94.1455 53.7833 94.2867 53.7833C94.8514 53.9827 95.3454 54.1821 95.9101 54.448C95.9101 54.448 95.9807 54.448 96.0513 54.448C96.0513 53.3181 96.0513 52.1881 96.0513 51.0582C96.7571 51.0582 97.463 51.0582 98.0982 51.0582C99.157 51.0582 99.9334 50.46 99.8628 49.3301C99.9334 48.0672 99.9334 46.7379 99.9334 45.4085ZM98.0276 49.0642C98.0276 49.463 97.8159 49.5959 97.463 49.5959C97.0395 49.5959 96.616 49.5959 96.1219 49.5959C96.1219 48.1337 96.1219 46.6714 96.1219 45.2091C96.616 45.2091 97.1806 45.2091 97.6747 45.2091C97.8865 45.2091 98.0982 45.475 98.0982 45.7409C98.0982 46.3391 98.0982 46.9373 98.0982 47.5355C98.0277 48.0672 98.0276 48.5989 98.0276 49.0642Z" fill="#929496"/>
<path d="M104.45 51.058C104.027 51.058 103.603 51.058 103.18 51.058C102.897 51.058 102.685 51.058 102.403 50.9915C101.627 50.7921 101.203 50.2604 101.203 49.5293C101.203 48.1335 101.203 46.7377 101.203 45.3419C101.203 44.4778 101.909 43.8796 102.897 43.8131C103.391 43.8131 103.885 43.8131 104.45 43.8131C104.45 43.7467 104.45 43.6802 104.45 43.6137C104.45 42.8826 104.45 42.085 104.45 41.3539C104.45 41.2209 104.521 41.1545 104.591 41.088C105.156 40.8886 105.65 40.6892 106.215 40.4233C106.215 41.5533 106.215 42.6832 106.215 43.8131C106.356 43.8131 106.426 43.8131 106.568 43.8131C107.132 43.8131 107.626 43.8131 108.191 43.8796C108.967 44.0125 109.462 44.5443 109.462 45.3419C109.462 46.7377 109.462 48.1335 109.462 49.5293C109.462 50.3269 108.897 50.8586 108.05 50.9915C107.838 50.9915 107.697 51.058 107.485 51.058C107.062 51.058 106.709 51.058 106.285 51.058C106.285 51.6562 106.285 52.1879 106.285 52.7196C106.285 53.2514 106.285 53.8496 106.285 54.4478C106.144 54.3813 106.003 54.3813 105.932 54.3148C105.509 54.1154 105.085 53.9825 104.662 53.7831C104.521 53.7167 104.521 53.6502 104.521 53.5837C104.521 52.8526 104.521 52.055 104.521 51.3238C104.45 51.2574 104.45 51.1909 104.45 51.058ZM104.379 45.2754C104.097 45.2754 103.744 45.2754 103.462 45.2754C103.179 45.2754 102.968 45.4748 102.968 45.7407C102.968 46.8706 102.968 48.067 102.968 49.1969C102.968 49.3963 103.179 49.5957 103.391 49.6622C103.744 49.6622 104.026 49.6622 104.379 49.6622C104.379 48.1999 104.379 46.7377 104.379 45.2754ZM106.285 49.6622C106.568 49.6622 106.85 49.6622 107.132 49.6622C107.485 49.6622 107.697 49.4628 107.697 49.1305C107.697 48.9311 107.697 48.6652 107.697 48.4658C107.697 47.6017 107.697 46.7377 107.697 45.8736C107.697 45.6077 107.556 45.3419 107.344 45.3419C106.991 45.3419 106.709 45.3419 106.356 45.3419C106.285 46.7377 106.285 48.1999 106.285 49.6622Z" fill="#929496"/>
<path d="M5.13775 11.976L5.70241 9.58323H3.65547L3.09079 11.976H1.46735L2.03203 9.58323H0.0556641V8.12097H2.38495L2.87904 5.99404H0.902674V4.53178H3.23196L3.72605 2.33838H5.34949L4.85539 4.53178H6.83177L7.32584 2.33838H8.9493L8.4552 4.53178H10.5021V5.99404H8.17287L7.67877 8.12097H9.72573V9.58323H7.39643L6.83177 11.976H5.13775ZM4.00839 8.12097H6.05534L6.54943 5.99404H4.50247L4.00839 8.12097Z" fill="#929496"/>
</svg>
