<svg width="17" height="18" viewBox="0 0 17 18" fill="none" xmlns="http://www.w3.org/2000/svg">
<path d="M16.3331 14.6894C15.9066 13.679 15.2878 12.7612 14.511 11.9872C13.7366 11.2109 12.8192 10.592 11.8096 10.1646C11.8005 10.1601 11.7915 10.1578 11.7824 10.1533C13.1908 9.13568 14.1063 7.47814 14.1063 5.60804C14.1063 2.51005 11.5971 0 8.5 0C5.40295 0 2.89365 2.51005 2.89365 5.60804C2.89365 7.47814 3.80921 9.13568 5.21758 10.1555C5.20853 10.16 5.19949 10.1623 5.19045 10.1668C4.17769 10.5942 3.26892 11.207 2.489 11.9894C1.71295 12.7641 1.09421 13.6817 0.66694 14.6917C0.247193 15.6805 0.0208134 16.7406 5.65291e-05 17.8146C-0.000546843 17.8387 0.00368511 17.8627 0.0125031 17.8852C0.0213212 17.9077 0.0345468 17.9281 0.0514007 17.9454C0.0682546 17.9627 0.0883959 17.9764 0.110638 17.9858C0.132879 17.9952 0.156772 18 0.180906 18H1.53728C1.63675 18 1.71587 17.9209 1.71813 17.8236C1.76334 16.0779 2.46414 14.443 3.70296 13.2038C4.98473 11.9216 6.68698 11.2161 8.5 11.2161C10.313 11.2161 12.0153 11.9216 13.297 13.2038C14.5359 14.443 15.2367 16.0779 15.2819 17.8236C15.2841 17.9231 15.3633 18 15.4627 18H16.8191C16.8432 18 16.8671 17.9952 16.8894 17.9858C16.9116 17.9764 16.9317 17.9627 16.9486 17.9454C16.9655 17.9281 16.9787 17.9077 16.9875 17.8852C16.9963 17.8627 17.0005 17.8387 16.9999 17.8146C16.9773 16.7337 16.7535 15.6822 16.3331 14.6894ZM8.5 9.49749C7.46237 9.49749 6.48578 9.09271 5.75108 8.35779C5.01638 7.62286 4.61173 6.64598 4.61173 5.60804C4.61173 4.5701 5.01638 3.59322 5.75108 2.85829C6.48578 2.12337 7.46237 1.71859 8.5 1.71859C9.53763 1.71859 10.5142 2.12337 11.2489 2.85829C11.9836 3.59322 12.3883 4.5701 12.3883 5.60804C12.3883 6.64598 11.9836 7.62286 11.2489 8.35779C10.5142 9.09271 9.53763 9.49749 8.5 9.49749Z" fill="#737373"/>
</svg>
