<svg width="42" height="45" viewBox="0 0 42 45" fill="none" xmlns="http://www.w3.org/2000/svg">
<path d="M6.43819 22.7862H6.06797L0.637918 19.3307C0.519418 19.2795 0.419988 19.1925 0.353572 19.0818C0.287157 18.9711 0.257116 18.8423 0.267704 18.7137C0.276198 18.4856 0.36343 18.2676 0.514538 18.0966L5.94456 13.1602C6.05692 13.0508 6.20113 12.9799 6.35639 12.9578C6.51164 12.9356 6.6699 12.9633 6.8084 13.0368C6.93684 13.1094 7.04072 13.2186 7.10668 13.3505C7.17264 13.4824 7.19771 13.631 7.17865 13.7773V22.1692C7.18386 22.3137 7.15269 22.4573 7.088 22.5866C7.02331 22.716 6.92717 22.8271 6.8084 22.9096L6.43819 22.7862ZM2.36568 18.4669L5.69772 20.5648V15.3817L2.36568 18.4669Z" fill="white"/>
<path d="M40.1289 44.9999H1.13146C1.01802 44.9999 0.905676 44.9775 0.800867 44.9341C0.696058 44.8907 0.600807 44.827 0.520589 44.7468C0.440371 44.6666 0.376749 44.5714 0.333335 44.4666C0.289922 44.3618 0.267578 44.2496 0.267578 44.1361V18.4668C0.294843 18.3321 0.353837 18.2058 0.439692 18.0985C0.525547 17.9912 0.635777 17.906 0.761209 17.8498H1.50167L6.31464 20.935C6.40176 20.9953 6.47494 21.0735 6.52924 21.1645C6.58354 21.2554 6.61768 21.357 6.62938 21.4623C6.64108 21.5676 6.63008 21.6741 6.59707 21.7747C6.56406 21.8754 6.50983 21.9678 6.43806 22.0458C6.31423 22.2144 6.13338 22.3324 5.9291 22.3778C5.72482 22.4232 5.51101 22.3929 5.32738 22.2925L1.87189 19.9477V43.3955H39.265V19.9477L35.6862 22.4159C35.5156 22.4494 35.339 22.4307 35.1792 22.3623C35.0195 22.2938 34.8841 22.1787 34.7908 22.032C34.6975 21.8854 34.6506 21.714 34.6562 21.5403C34.6618 21.3666 34.7197 21.1987 34.8223 21.0584L39.6352 17.8498H40.4991C40.6176 17.901 40.7171 17.9881 40.7835 18.0988C40.8499 18.2095 40.8799 18.3382 40.8693 18.4668V44.1361C40.8715 44.3454 40.7976 44.5482 40.6614 44.7071C40.5252 44.8659 40.336 44.97 40.1289 44.9999V44.9999Z" fill="white"/>
<path d="M34.6988 22.7863H34.3286C34.2099 22.7037 34.1137 22.5927 34.049 22.4633C33.9843 22.3339 33.9532 22.1904 33.9584 22.0458V13.6539C33.9404 13.5728 33.9391 13.4889 33.9544 13.4072C33.9697 13.3255 34.0014 13.2478 34.0475 13.1786C34.0936 13.1095 34.1532 13.0503 34.2227 13.0048C34.2922 12.9592 34.3702 12.9282 34.452 12.9135C34.5905 12.8399 34.7488 12.8122 34.9041 12.8344C35.0593 12.8566 35.2035 12.9275 35.3159 13.0369L40.6225 17.9733C40.8693 18.0967 40.8693 18.3435 40.8693 18.5903C40.8799 18.719 40.8499 18.8478 40.7835 18.9585C40.7171 19.0692 40.6176 19.1562 40.4991 19.2074L35.1925 22.6629L34.6988 22.7863ZM35.5627 15.3817V20.5648L38.7714 18.4669L35.5627 15.3817Z" fill="white"/>
<path d="M24.5795 5.13855H16.6812C16.6001 5.15648 16.5161 5.15793 16.4344 5.14262C16.3528 5.12731 16.275 5.09562 16.2058 5.04952C16.1367 5.00342 16.0776 4.94383 16.032 4.87432C15.9865 4.80481 15.9554 4.72684 15.9408 4.64504C15.8672 4.50653 15.8395 4.3482 15.8617 4.19294C15.8839 4.03769 15.9548 3.89344 16.0642 3.78108L20.0133 0.202168C20.1689 0.0715876 20.3655 0 20.5686 0C20.7718 0 20.9684 0.0715876 21.124 0.202168L25.0731 3.78108C25.1895 3.88858 25.2741 4.02612 25.3176 4.17848C25.3612 4.33085 25.3619 4.49226 25.3199 4.64504C25.2666 4.79645 25.1657 4.92644 25.0321 5.01548C24.8986 5.10451 24.7397 5.14764 24.5795 5.13855V5.13855ZM18.6558 3.53432H22.4815L20.6303 1.80655L18.6558 3.53432Z" fill="white"/>
<path d="M6.43822 22.6629C5.94458 22.6629 5.69775 22.2925 5.69775 21.7989V4.39817C5.69775 3.90453 5.94458 3.53436 6.43822 3.53436H34.699C34.9281 3.53436 35.1479 3.62529 35.3099 3.7873C35.4719 3.9493 35.5629 4.16906 35.5629 4.39817V21.6755C35.5629 21.9046 35.4719 22.1244 35.3099 22.2864C35.1479 22.4484 34.9281 22.5395 34.699 22.5395C34.4919 22.5096 34.3027 22.4055 34.1665 22.2466C34.0303 22.0877 33.9564 21.8848 33.9586 21.6755V5.1386H7.17868V21.7989C7.17868 22.2925 6.93186 22.6629 6.43822 22.6629Z" fill="white"/>
<path d="M40.1289 45H1.13146C0.94365 44.9901 0.762548 44.9267 0.609508 44.8174C0.456469 44.7081 0.337845 44.5574 0.267578 44.3829C0.284189 44.0601 0.415457 43.7538 0.637792 43.5191L19.1492 31.3015L0.637792 19.2073C0.535227 19.067 0.477387 18.8991 0.47178 18.7254C0.466172 18.5517 0.51308 18.3803 0.606382 18.2337C0.699684 18.0871 0.835025 17.9721 0.994749 17.9036C1.15447 17.8352 1.33115 17.8164 1.50167 17.8499L20.6302 30.4376L39.6352 17.8499C39.7182 17.7364 39.8277 17.6448 39.9541 17.5832C40.0804 17.5216 40.22 17.4918 40.3605 17.4963C40.501 17.5008 40.6384 17.5396 40.7605 17.6093C40.8827 17.6789 40.986 17.7773 41.0615 17.896C41.1369 18.0146 41.1823 18.1498 41.1937 18.2899C41.205 18.4301 41.182 18.5709 41.1266 18.7001C41.0712 18.8293 40.9851 18.9431 40.8757 19.0315C40.7664 19.1199 40.6371 19.1802 40.4991 19.2073L21.9877 31.3015L40.4991 43.5191C40.6513 43.598 40.7714 43.7272 40.8389 43.8848C40.9064 44.0423 40.9171 44.2183 40.8693 44.3829C40.8399 44.5572 40.7491 44.7152 40.6133 44.8284C40.4775 44.9416 40.3056 45.0025 40.1289 45V45ZM3.72303 43.3956H37.4139L20.6302 32.2887L3.72303 43.3956Z" fill="white"/>
<path d="M19.6263 9.58777H10.3212C10.1226 9.58777 9.93219 9.50884 9.79179 9.36843C9.65138 9.22803 9.57251 9.0377 9.57251 8.83914C9.59841 8.65964 9.68859 8.49564 9.82629 8.37761C9.96399 8.25958 10.1398 8.19545 10.3212 8.1973H19.6263C19.7965 8.1973 19.9597 8.26496 20.0801 8.38531C20.2004 8.50566 20.268 8.66894 20.268 8.83914C20.268 9.26696 20.0541 9.58777 19.6263 9.58777Z" fill="white"/>
<path d="M25.4019 14.7217H10.3212C10.1226 14.7217 9.93219 14.6428 9.79179 14.5023C9.65138 14.3619 9.57251 14.1715 9.57251 13.9729C9.59841 13.7934 9.68859 13.6294 9.82629 13.5114C9.96399 13.3934 10.1398 13.3294 10.3212 13.3312H25.4019C25.5832 13.3294 25.7591 13.3934 25.8968 13.5114C26.0345 13.6294 26.1247 13.7934 26.1506 13.9729C26.1506 14.1715 26.0717 14.3619 25.9313 14.5023C25.7908 14.6428 25.6004 14.7217 25.4019 14.7217Z" fill="white"/>
<path d="M25.4018 19.7485H13.9576C13.7874 19.7485 13.6242 19.6808 13.5039 19.5605C13.3835 19.4401 13.3159 19.277 13.3159 19.1068C13.3159 18.9366 13.3835 18.7733 13.5039 18.653C13.6242 18.5326 13.7874 18.4651 13.9576 18.4651H25.4018C25.8297 18.4651 26.1505 18.679 26.1505 19.1068C26.1505 19.5346 25.8297 19.7485 25.4018 19.7485Z" fill="white"/>
</svg>
