<svg width="48" height="46" viewBox="0 0 48 46" fill="none" xmlns="http://www.w3.org/2000/svg">
<path d="M23.7067 8.10359C22.5715 8.0729 21.493 7.6002 20.701 6.78621C19.9091 5.97223 19.4661 4.88127 19.4666 3.74557C19.6356 2.72749 20.1605 1.80242 20.9478 1.13512C21.735 0.467818 22.7336 0.101562 23.7656 0.101562C24.7977 0.101562 25.7962 0.467818 26.5835 1.13512C27.3707 1.80242 27.8957 2.72749 28.0648 3.74557C28.0648 4.31787 27.952 4.8846 27.733 5.41334C27.514 5.94208 27.193 6.42244 26.7883 6.82712C26.3836 7.2318 25.9032 7.55281 25.3745 7.77182C24.8458 7.99083 24.279 8.10359 23.7067 8.10359V8.10359ZM23.7067 0.918731C23.1477 0.918731 22.6011 1.08453 22.1362 1.39514C21.6714 1.70576 21.3091 2.14725 21.0951 2.66378C20.8812 3.18031 20.8252 3.74869 20.9343 4.29704C21.0433 4.84539 21.3125 5.34913 21.7079 5.74446C22.1032 6.1398 22.6069 6.40899 23.1553 6.51807C23.7036 6.62714 24.272 6.57113 24.7885 6.35718C25.3051 6.14322 25.7466 5.78094 26.0572 5.31607C26.3678 4.85121 26.5336 4.30466 26.5336 3.74557C26.5503 3.3699 26.4886 2.99483 26.3525 2.6443C26.2164 2.29376 26.0087 1.97542 25.7428 1.70952C25.4769 1.44361 25.1586 1.23597 24.808 1.09982C24.4575 0.963677 24.0824 0.90201 23.7067 0.918731Z" fill="white"/>
<path d="M12.164 45.7944C11.6913 45.7868 11.2259 45.6776 10.7991 45.4744C10.3724 45.2712 9.99425 44.9787 9.69046 44.6165C9.41015 44.9758 9.05328 45.2678 8.64576 45.4716C8.23823 45.6754 7.79032 45.7857 7.33478 45.7944C6.49135 45.7944 5.68247 45.4593 5.08607 44.8629C4.48967 44.2665 4.15467 43.4576 4.15467 42.6142V29.4224L3.21234 29.7757C2.44493 29.7941 1.69517 29.5442 1.09225 29.0691C0.818535 28.8145 0.603155 28.5038 0.46084 28.1582C0.318524 27.8125 0.252627 27.4402 0.267744 27.0667V16.8195C0.267744 15.6012 0.751768 14.4329 1.61323 13.5714C2.47469 12.7099 3.64305 12.226 4.86134 12.226H14.5196C14.6424 12.2159 14.7652 12.2445 14.8709 12.3079C14.9765 12.3713 15.0597 12.4662 15.1086 12.5793C15.2263 12.6971 15.3441 13.0505 15.2263 13.1682C15.1024 13.5504 15.0233 13.9457 14.9907 14.3461V25.5355C15.0143 25.786 15.0949 26.0277 15.2263 26.2422C15.2689 26.29 15.3014 26.346 15.3216 26.4068C15.3419 26.4675 15.3496 26.5318 15.3441 26.5956V26.949V42.6142C15.3441 43.4576 15.0091 44.2665 14.4127 44.8629C13.8163 45.4593 13.0074 45.7944 12.164 45.7944ZM10.515 42.6142C10.515 43.0515 10.6887 43.4709 10.9979 43.7802C11.3072 44.0894 11.7266 44.2632 12.164 44.2632C12.6013 44.2632 13.0207 44.0894 13.3299 43.7802C13.6392 43.4709 13.8129 43.0515 13.8129 42.6142V26.949C13.6007 26.5486 13.48 26.106 13.4596 25.6533V14.3461C13.4596 14.1105 13.5774 13.9927 13.5774 13.7572H4.86134C4.45919 13.7572 4.06095 13.8364 3.6894 13.9903C3.31786 14.1442 2.98025 14.3698 2.69589 14.6541C2.41152 14.9385 2.18596 15.2761 2.03206 15.6476C1.87816 16.0192 1.79899 16.4174 1.79899 16.8195V27.0667C1.79404 27.2216 1.82306 27.3757 1.88411 27.5182C1.94516 27.6606 2.03674 27.788 2.15233 27.8912C2.27788 28.01 2.42594 28.1024 2.58776 28.1631C2.74959 28.2238 2.9219 28.2515 3.09459 28.2446C3.39598 28.1889 3.66785 28.0282 3.86194 27.7909C4.05602 27.5537 4.15977 27.2554 4.15467 26.949V19.9997C4.15467 19.5286 4.39021 19.1752 4.86134 19.1752C5.33248 19.1752 5.56802 19.5286 5.56802 19.9997V42.6142C5.59794 43.0621 5.79723 43.4818 6.12538 43.788C6.45352 44.0943 6.88591 44.2642 7.33478 44.2632C7.77211 44.2632 8.19158 44.0894 8.50083 43.7802C8.81007 43.4709 8.98378 43.0515 8.98378 42.6142V30.8358C8.98173 30.6361 9.05222 30.4425 9.1822 30.2908C9.31217 30.1392 9.49278 30.0398 9.69046 30.0113C9.79873 30.0113 9.90595 30.0326 10.006 30.0741C10.106 30.1155 10.1969 30.1762 10.2735 30.2528C10.35 30.3294 10.4108 30.4203 10.4522 30.5203C10.4936 30.6203 10.515 30.7275 10.515 30.8358V42.6142Z" fill="white"/>
<path d="M9.6904 11.0482C8.6283 11.0482 7.60976 10.6263 6.85874 9.87528C6.10772 9.12426 5.68579 8.10565 5.68579 7.04355C5.68579 5.98145 6.10772 4.96284 6.85874 4.21182C7.60976 3.4608 8.6283 3.03894 9.6904 3.03894C10.7525 3.03894 11.7711 3.4608 12.5221 4.21182C13.2731 4.96284 13.6951 5.98145 13.6951 7.04355C13.6951 8.10565 13.2731 9.12426 12.5221 9.87528C11.7711 10.6263 10.7525 11.0482 9.6904 11.0482V11.0482ZM9.6904 4.57012C9.0344 4.57012 8.40526 4.83068 7.9414 5.29455C7.47753 5.75841 7.21697 6.38755 7.21697 7.04355C7.21697 7.69955 7.47753 8.32869 7.9414 8.79255C8.40526 9.25641 9.0344 9.51705 9.6904 9.51705C10.3464 9.51705 10.9755 9.25641 11.4394 8.79255C11.9033 8.32869 12.1639 7.69955 12.1639 7.04355C12.1639 6.38755 11.9033 5.75841 11.4394 5.29455C10.9755 4.83068 10.3464 4.57012 9.6904 4.57012V4.57012Z" fill="white"/>
<path d="M40.1965 45.7944C39.741 45.7857 39.2932 45.6754 38.8856 45.4716C38.4781 45.2678 38.1212 44.9758 37.8409 44.6165C37.5371 44.9787 37.159 45.2712 36.7323 45.4744C36.3055 45.6776 35.84 45.7868 35.3674 45.7944C34.524 45.7944 33.7151 45.4593 33.1187 44.8629C32.5223 44.2665 32.1873 43.4576 32.1873 42.6142V26.7134C32.305 26.2423 32.5406 25.6533 32.5406 25.5355V14.3461C32.508 13.9457 32.4289 13.5504 32.305 13.1682C32.1872 13.0505 32.3051 12.6971 32.4228 12.5793C32.4717 12.4662 32.5548 12.3713 32.6604 12.3079C32.7661 12.2445 32.889 12.2159 33.0118 12.226H42.67C43.8883 12.226 45.0567 12.7099 45.9182 13.5714C46.7796 14.4329 47.2636 15.6012 47.2636 16.8195V27.0667C47.2787 27.4402 47.2129 27.8125 47.0706 28.1582C46.9282 28.5038 46.7128 28.8145 46.4391 29.0691C45.8362 29.5442 45.0864 29.7941 44.319 29.7757L43.3767 29.4224V42.6142C43.3767 43.4576 43.0416 44.2665 42.4453 44.8629C41.8489 45.4593 41.04 45.7944 40.1965 45.7944ZM38.5475 42.6142C38.5475 43.0515 38.7213 43.4709 39.0306 43.7802C39.3398 44.0894 39.7592 44.2632 40.1965 44.2632C40.6454 44.2642 41.0778 44.0943 41.4059 43.788C41.7341 43.4818 41.9334 43.0621 41.9633 42.6142V27.0667H41.8455V20.1175C41.8455 20.0092 41.8669 19.902 41.9083 19.802C41.9497 19.702 42.0105 19.6111 42.087 19.5345C42.1636 19.4579 42.2544 19.3972 42.3545 19.3558C42.4545 19.3143 42.5617 19.293 42.67 19.293C42.8677 19.3215 43.0483 19.4208 43.1782 19.5725C43.3082 19.7241 43.3788 19.9178 43.3767 20.1175V27.0667C43.3716 27.3732 43.4753 27.6716 43.6694 27.9088C43.8635 28.146 44.1353 28.3067 44.4367 28.3624C44.6094 28.3693 44.7818 28.3416 44.9436 28.2809C45.1055 28.2203 45.2535 28.1277 45.3791 28.009C45.4947 27.9057 45.5862 27.7785 45.6472 27.636C45.7083 27.4936 45.7374 27.3395 45.7324 27.1845V16.9373C45.7324 16.1251 45.4097 15.3462 44.8354 14.7719C44.2611 14.1976 43.4822 13.8749 42.67 13.8749H33.954C33.954 14.1105 34.0718 14.2283 34.0718 14.4638V25.6533C34.0103 26.1751 33.8918 26.6886 33.7184 27.1845V42.6142C33.7184 42.8308 33.7611 43.0452 33.844 43.2453C33.9268 43.4453 34.0483 43.6271 34.2014 43.7802C34.3545 43.9333 34.5363 44.0548 34.7364 44.1377C34.9365 44.2206 35.1509 44.2632 35.3674 44.2632C35.584 44.2632 35.7983 44.2206 35.9984 44.1377C36.1985 44.0548 36.3803 43.9333 36.5334 43.7802C36.6865 43.6271 36.808 43.4453 36.8908 43.2453C36.9737 43.0452 37.0164 42.8308 37.0164 42.6142V30.8358C37.0164 30.7275 37.0377 30.6203 37.0791 30.5203C37.1206 30.4203 37.1813 30.3294 37.2578 30.2528C37.3344 30.1762 37.4253 30.1155 37.5253 30.0741C37.6254 30.0326 37.7326 30.0113 37.8409 30.0113C38.0385 30.0398 38.2191 30.1392 38.3491 30.2908C38.4791 30.4425 38.5496 30.6361 38.5475 30.8358V42.6142Z" fill="white"/>
<path d="M26.4157 45.7944C25.3788 45.7303 24.4075 45.2656 23.7067 44.4987C23.3908 44.8855 22.9966 45.2011 22.55 45.4244C22.1033 45.6477 21.6144 45.7738 21.1154 45.7944C20.2095 45.7944 19.3407 45.4345 18.7002 44.7939C18.0596 44.1533 17.6997 43.2845 17.6997 42.3786V28.009L16.6397 28.3624C15.8466 28.3952 15.0717 28.1188 14.4784 27.5915C13.8852 27.0641 13.5199 26.327 13.4595 25.5356V14.3461C13.4745 13.7793 13.5943 13.2202 13.8128 12.6971C14.1565 11.7249 14.7953 10.8845 15.64 10.2932C16.4847 9.70187 17.4931 9.3893 18.5242 9.39915H29.007C30.038 9.3893 31.0464 9.70187 31.8911 10.2932C32.7358 10.8845 33.3747 11.7249 33.7183 12.6971C33.9368 13.2202 34.0566 13.7793 34.0717 14.3461V25.5356C34.0226 26.0731 33.8622 26.5946 33.6006 27.0667C33.2983 27.4971 32.8902 27.8424 32.4157 28.0694C31.9413 28.2963 31.4163 28.3973 30.8915 28.3624L29.8315 28.009V42.3786C29.8315 43.2845 29.4715 44.1533 28.831 44.7939C28.1904 45.4345 27.3216 45.7944 26.4157 45.7944V45.7944ZM23.7067 41.5541C23.9254 41.5541 24.1351 41.6411 24.2897 41.7957C24.4443 41.9503 24.5312 42.16 24.5312 42.3786C24.5312 42.8785 24.7297 43.3578 25.0832 43.7113C25.4366 44.0647 25.9159 44.2632 26.4157 44.2632C26.9155 44.2632 27.3949 44.0647 27.7483 43.7113C28.1017 43.3578 28.3003 42.8785 28.3003 42.3786V25.4178C28.2982 25.2181 28.3687 25.0244 28.4987 24.8727C28.6287 24.7211 28.8093 24.6218 29.007 24.5933V24.5933C29.2256 24.5933 29.4354 24.6802 29.59 24.8348C29.7446 24.9894 29.8315 25.1991 29.8315 25.4178C29.8267 25.7552 29.9429 26.0831 30.1589 26.3424C30.3749 26.6016 30.6766 26.7749 31.0093 26.8312C31.5015 26.8117 31.9666 26.6003 32.3049 26.2422C32.4363 26.0277 32.5169 25.786 32.5405 25.5356V14.3461C32.5079 13.9457 32.4288 13.5504 32.3049 13.1683V13.1683C32.0442 12.5067 31.5899 11.9392 31.0015 11.54C30.4131 11.1407 29.718 10.9282 29.007 10.9303H18.5242C17.8131 10.9282 17.118 11.1407 16.5296 11.54C15.9412 11.9392 15.487 12.5067 15.2262 13.1683C15.1023 13.5504 15.0233 13.9457 14.9906 14.3461V25.5356C15.0055 25.7214 15.057 25.9025 15.1421 26.0683C15.2272 26.2342 15.3443 26.3816 15.4866 26.502C15.6289 26.6225 15.7937 26.7136 15.9714 26.77C16.149 26.8265 16.3362 26.8473 16.5219 26.8312C16.8546 26.7749 17.1563 26.6016 17.3723 26.3424C17.5883 26.0831 17.7044 25.7552 17.6997 25.4178C17.6997 25.1991 17.7866 24.9894 17.9412 24.8348C18.0958 24.6802 18.3055 24.5933 18.5242 24.5933C18.7218 24.6218 18.9024 24.7211 19.0324 24.8727C19.1624 25.0244 19.233 25.2181 19.2309 25.4178V42.3786C19.2309 42.8785 19.4295 43.3578 19.7829 43.7113C20.1363 44.0647 20.6156 44.2632 21.1154 44.2632C21.6152 44.2632 22.0946 44.0647 22.448 43.7113C22.8015 43.3578 23 42.8785 23 42.3786C22.998 42.1789 23.0684 41.9853 23.1984 41.8336C23.3284 41.682 23.509 41.5827 23.7067 41.5541V41.5541Z" fill="white"/>
<path d="M37.8411 11.0483C37.049 11.0483 36.2748 10.8134 35.6162 10.3734C34.9577 9.93332 34.4444 9.30787 34.1413 8.57612C33.8382 7.84436 33.7589 7.03918 33.9134 6.26235C34.0679 5.48553 34.4493 4.77191 35.0093 4.21185C35.5694 3.65179 36.2829 3.27041 37.0598 3.11589C37.8366 2.96137 38.6418 3.04068 39.3736 3.34378C40.1054 3.64688 40.7308 4.16018 41.1708 4.81874C41.6109 5.4773 41.8457 6.25153 41.8457 7.04358C41.8161 8.0963 41.3846 9.09777 40.6399 9.84245C39.8953 10.5871 38.8938 11.0186 37.8411 11.0483V11.0483ZM37.8411 4.57014C37.1851 4.57014 36.5559 4.83071 36.0921 5.29458C35.6282 5.75844 35.3676 6.38757 35.3676 7.04358C35.3676 7.69958 35.6282 8.32871 36.0921 8.79258C36.5559 9.25644 37.1851 9.51708 37.8411 9.51708C38.4971 9.51708 39.1262 9.25644 39.5901 8.79258C40.0539 8.32871 40.3145 7.69958 40.3145 7.04358C40.3145 6.38757 40.0539 5.75844 39.5901 5.29458C39.1262 4.83071 38.4971 4.57014 37.8411 4.57014V4.57014Z" fill="white"/>
<path d="M23.7067 43.0854C23.5193 43.0854 23.3395 43.0109 23.207 42.8783C23.0745 42.7458 23 42.5661 23 42.3786V29.658C22.998 29.4583 23.0685 29.2646 23.1985 29.113C23.3284 28.9614 23.509 28.862 23.7067 28.8335C23.9254 28.8335 24.1351 28.9204 24.2897 29.075C24.4444 29.2296 24.5312 29.4393 24.5312 29.658V42.3786C24.5027 42.5763 24.4034 42.7569 24.2517 42.8869C24.1001 43.0169 23.9064 43.0874 23.7067 43.0854V43.0854Z" fill="white"/>
<path d="M18.5241 26.1245C18.3244 26.1265 18.1308 26.056 17.9791 25.9261C17.8275 25.7961 17.7282 25.6155 17.6997 25.4178V16.7018C17.7282 16.5041 17.8275 16.3235 17.9791 16.1935C18.1308 16.0635 18.3244 15.9931 18.5241 15.9951C18.7116 15.9951 18.8914 16.0695 19.0239 16.2021C19.1564 16.3346 19.2309 16.5143 19.2309 16.7018V25.4178C19.2309 25.6052 19.1564 25.785 19.0239 25.9175C18.8914 26.05 18.7116 26.1245 18.5241 26.1245V26.1245Z" fill="white"/>
<path d="M29.007 26.1245C28.8195 26.1245 28.6398 26.05 28.5073 25.9175C28.3747 25.785 28.3003 25.6052 28.3003 25.4178V16.7018C28.3003 16.5143 28.3747 16.3346 28.5073 16.2021C28.6398 16.0695 28.8195 15.9951 29.007 15.9951C29.2067 15.9931 29.4003 16.0635 29.552 16.1935C29.7036 16.3235 29.8029 16.5041 29.8315 16.7018V25.4178C29.8029 25.6155 29.7036 25.7961 29.552 25.9261C29.4003 26.056 29.2067 26.1265 29.007 26.1245V26.1245Z" fill="white"/>
</svg>
