<svg width="26" height="46" viewBox="0 0 26 46" fill="none" xmlns="http://www.w3.org/2000/svg">
<path d="M6.03665 45.998H5.6745C5.59097 45.9721 5.51404 45.9283 5.44906 45.8697C5.38408 45.8111 5.3326 45.7391 5.29816 45.6586C5.26371 45.5781 5.24715 45.491 5.2496 45.4035C5.25204 45.3159 5.27342 45.2299 5.3123 45.1515L9.77909 27.7366H1.08698C1.00759 27.7542 0.925499 27.7555 0.84559 27.7405C0.765681 27.7255 0.689606 27.6944 0.62196 27.6492C0.554314 27.604 0.496496 27.5457 0.451935 27.4775C0.407373 27.4094 0.377013 27.333 0.362667 27.2528C0.299092 27.1425 0.265625 27.0175 0.265625 26.8901C0.265625 26.7628 0.299092 26.6376 0.362667 26.5273L18.3505 0.284151C18.4744 0.159787 18.6297 0.0715152 18.7999 0.0289032C18.97 -0.0137088 19.1485 -0.00914057 19.3162 0.0421896C19.3998 0.0680883 19.4767 0.111868 19.5417 0.170478C19.6067 0.229088 19.6581 0.301223 19.6926 0.381732C19.727 0.462242 19.7436 0.549274 19.7411 0.636832C19.7387 0.72439 19.7173 0.810378 19.6784 0.888832L15.8153 19.8758L24.5074 20.1176C24.6641 20.1087 24.8195 20.1511 24.9502 20.2383C25.0808 20.3256 25.1796 20.453 25.2317 20.6013C25.2674 20.7236 25.275 20.8523 25.2541 20.9779C25.2332 21.1036 25.1843 21.2229 25.111 21.3269L6.64027 45.6352C6.59018 45.7514 6.50503 45.8487 6.39675 45.9138C6.28846 45.9789 6.16251 46.0083 6.03665 45.998ZM2.53568 26.0435H10.8656L11.4692 26.2854C11.5662 26.5143 11.6076 26.763 11.5899 27.011L7.72677 41.6443L22.938 21.5689L14.7288 21.3269L14.2459 21.0851C14.1614 21.0101 14.0955 20.9164 14.0536 20.8114C14.0117 20.7064 13.9948 20.5931 14.0044 20.4804L17.3847 4.27496L2.53568 26.0435Z" fill="white"/>
</svg>
