<svg width="47" height="46" viewBox="0 0 47 46" fill="none" xmlns="http://www.w3.org/2000/svg">
<path d="M30.0381 46H16.962C16.764 46.002 16.572 45.9321 16.4217 45.8033C16.2714 45.6744 16.173 45.4954 16.1447 45.2995V30.3553H1.20056C1.00461 30.327 0.825592 30.2286 0.696754 30.0782C0.567916 29.9279 0.498014 29.7361 0.500043 29.5381V16.4619C0.498014 16.2639 0.567916 16.0721 0.696754 15.9218C0.825592 15.7714 1.00461 15.673 1.20056 15.6447H16.1447V0.70052C16.173 0.504578 16.2714 0.325556 16.4217 0.196718C16.572 0.0678802 16.764 -0.00198604 16.962 4.29838e-05H30.0381C30.236 -0.00198604 30.428 0.0678802 30.5783 0.196718C30.7286 0.325556 30.8271 0.504578 30.8553 0.70052V15.6447H45.7995C46.2665 15.6447 46.5 15.9949 46.5 16.4619V29.5381C46.5 30.0051 46.2665 30.3553 45.7995 30.3553H30.8553V45.2995C30.8271 45.4954 30.7286 45.6744 30.5783 45.8033C30.428 45.9321 30.236 46.002 30.0381 46ZM17.6625 44.4821H29.3376V29.5381C29.3376 29.3523 29.4114 29.1741 29.5428 29.0427C29.6741 28.9113 29.8523 28.8375 30.0381 28.8375H45.099V17.1624H30.0381C29.8523 17.1624 29.6741 17.0887 29.5428 16.9573C29.4114 16.8259 29.3376 16.6477 29.3376 16.4619V1.51786H17.6625V16.4619C17.6625 16.6477 17.5887 16.8259 17.4573 16.9573C17.3259 17.0887 17.1478 17.1624 16.962 17.1624H2.01779V28.8375H16.962C17.054 28.8375 17.1451 28.8557 17.23 28.8909C17.315 28.9261 17.3922 28.9777 17.4573 29.0427C17.5223 29.1078 17.5739 29.185 17.6091 29.27C17.6443 29.355 17.6625 29.4461 17.6625 29.5381V44.4821Z" fill="white"/>
</svg>
