<svg width="64" height="58" viewBox="0 0 64 58" fill="none" xmlns="http://www.w3.org/2000/svg">
<path d="M53.8447 57.6849L30.5896 57.4001C29.1792 57.4332 27.8097 56.9239 26.761 55.9765C26.3929 55.6773 25.9525 55.4809 25.4846 55.407C24.9108 55.2258 24.4093 54.8661 24.0524 54.3799C23.6956 53.8937 23.5019 53.3062 23.4996 52.7022V27.646C23.4578 27.1996 23.5569 26.7515 23.7831 26.3649L29.8806 15.5451C31.3003 13.1337 32.2619 10.4788 32.7166 7.71507L33.2836 4.58314C33.4068 3.75589 33.7478 2.97674 34.2713 2.32603C34.7948 1.67532 35.482 1.17668 36.2616 0.881714H37.3961C39.8067 0.881714 41.6501 3.72903 43.0681 9.28122C43.5383 11.0966 43.5867 12.9961 43.2097 14.8333L41.6501 24.0869H58.8077C60.1267 24.1208 61.3848 24.6524 62.3309 25.5759C63.2769 26.4994 63.8417 27.7468 63.9126 29.0697C63.8758 30.3874 63.3731 31.649 62.4946 32.6287C62.0674 33.0885 61.5305 33.4316 60.9347 33.6254C59.8721 35.292 59.2726 37.2133 59.1978 39.1907C59.123 41.168 59.5756 43.1295 60.5092 44.8722C60.5027 45.8206 60.2341 46.7487 59.7334 47.553C59.2327 48.3573 58.5195 49.0062 57.6732 49.4277C58.4699 50.3898 58.9198 51.5938 58.9496 52.8445C58.8794 54.1406 58.3218 55.3618 57.3897 56.2613C56.9317 56.7354 56.3793 57.1072 55.7685 57.3525C55.1576 57.5978 54.502 57.7112 53.8447 57.6849ZM37.3961 2.59001H36.6871C35.4109 2.87474 35.1271 4.58314 35.1271 4.58314L34.5601 7.71507C34.0107 10.7195 32.9554 13.6081 31.4402 16.2569L25.343 26.9342C25.343 27.0766 25.2011 27.219 25.2011 27.3614V52.4174C25.1983 52.6213 25.2681 52.8196 25.3981 52.9762C25.5281 53.1329 25.7098 53.2375 25.9101 53.2715C26.6237 53.4874 27.295 53.8246 27.8952 54.2682C28.624 54.9663 29.5829 55.3714 30.5896 55.407L53.8447 55.6918C54.6985 55.6568 55.508 55.3006 56.1122 54.6939C56.7165 54.0873 57.0712 53.2746 57.1061 52.4174C57.0922 51.799 56.8962 51.1986 56.5429 50.6919C56.1896 50.1851 55.695 49.7948 55.1211 49.5701C54.9359 49.4463 54.7861 49.2761 54.6866 49.0764C54.5871 48.8766 54.5411 48.6543 54.5537 48.4313C54.6344 48.23 54.7707 48.056 54.9466 47.9299C55.1224 47.8038 55.3304 47.7309 55.5462 47.7195C56.3736 47.7195 57.1671 47.3894 57.7521 46.802C58.3372 46.2147 58.6661 45.418 58.6661 44.5873C58.6921 43.961 58.5301 43.3413 58.2015 42.8083C57.8728 42.2753 57.3926 41.8536 56.8226 41.5977C56.597 41.5411 56.4029 41.3967 56.2832 41.1965C56.1636 40.9962 56.1282 40.7566 56.1846 40.53C56.241 40.3035 56.3846 40.1086 56.5841 39.9885C56.7835 39.8684 57.0224 39.8328 57.2481 39.8894C58.0754 39.8894 58.8686 39.5594 59.4537 38.972C60.0387 38.3847 60.3676 37.588 60.3676 36.7573C60.3753 36.1346 60.206 35.5226 59.8795 34.9931C59.553 34.4635 59.0828 34.0385 58.5241 33.7677C58.3232 33.702 58.1537 33.5635 58.0488 33.3793C57.944 33.1951 57.9115 32.9784 57.9571 32.7712C57.9909 32.5702 58.0953 32.3877 58.2513 32.2572C58.4074 32.1266 58.6046 32.0566 58.8077 32.0594C59.6618 32.0251 60.4718 31.6692 61.0766 31.0628C61.4029 30.7832 61.6618 30.433 61.8337 30.0385C62.0057 29.6439 62.086 29.2153 62.0691 28.785C62.0326 27.9415 61.6729 27.1447 61.0652 26.5611C60.4575 25.9775 59.6486 25.6523 58.8077 25.6531L40.6572 25.3682C40.3736 25.3682 40.09 25.3683 39.9482 25.0836C39.7724 24.8329 39.6739 24.5359 39.6647 24.2294L41.5081 14.1214C41.7452 12.5122 41.6971 10.8737 41.3662 9.28122C40.2318 5.0103 38.8141 2.30535 37.3961 2.30535V2.59001Z" fill="white"/>
<path d="M2.79639 56.9734C2.11433 56.9789 1.45549 56.7245 0.952923 56.2615C0.692545 56.0279 0.482699 55.7431 0.336356 55.4248C0.190013 55.1064 0.110494 54.7613 0.10233 54.4107V26.5075C0.081 26.1445 0.132834 25.7808 0.254654 25.4383C0.376474 25.0959 0.565779 24.7816 0.811331 24.5143C1.32725 24.0734 1.97757 23.8223 2.6548 23.8025H17.9689C18.3159 23.7831 18.6633 23.835 18.9895 23.9551C19.3157 24.0752 19.6142 24.2609 19.8664 24.5008C20.1187 24.7407 20.3193 25.0298 20.4563 25.3504C20.5934 25.671 20.6639 26.0163 20.6634 26.3651V54.2684C20.6634 54.9858 20.3793 55.6738 19.874 56.1811C19.3688 56.6883 18.6835 56.9734 17.9689 56.9734H2.79639ZM17.9689 25.6533H2.08739L1.80386 26.2226V54.4107C1.78927 54.5232 1.80838 54.6376 1.85891 54.739C1.90944 54.8405 1.98901 54.9245 2.08739 54.9802H17.9689C18.172 54.9831 18.3696 54.9128 18.5256 54.7823C18.6817 54.6517 18.786 54.4695 18.8199 54.2684V26.2226C18.8199 25.7955 18.5361 25.5108 17.9689 25.5108V25.6533Z" fill="white"/>
<path d="M58.8075 34.1951H50.8669C50.6036 34.1951 50.351 34.09 50.1648 33.9031C49.9787 33.7163 49.874 33.4628 49.874 33.1985C49.9084 32.9595 50.028 32.7412 50.2105 32.5841C50.3931 32.427 50.6265 32.3418 50.8669 32.3443H58.8075C59.0479 32.3418 59.2813 32.427 59.4639 32.5841C59.6464 32.7412 59.7657 32.9595 59.8 33.1985C59.8 33.4628 59.6957 33.7163 59.5096 33.9031C59.3234 34.09 59.0708 34.1951 58.8075 34.1951Z" fill="white"/>
<path d="M57.1063 42.0251H49.1654C48.9021 42.0251 48.6498 41.9201 48.4637 41.7332C48.2775 41.5463 48.1729 41.2928 48.1729 41.0285C48.2072 40.7896 48.3268 40.5713 48.5093 40.4142C48.6919 40.2571 48.9249 40.1719 49.1654 40.1743H57.1063C57.3468 40.1719 57.5798 40.2571 57.7624 40.4142C57.9449 40.5713 58.0645 40.7896 58.0989 41.0285C58.0989 41.2928 57.9942 41.5463 57.8081 41.7332C57.6219 41.9201 57.3696 42.0251 57.1063 42.0251Z" fill="white"/>
<path d="M55.5464 49.8551H47.4639C47.2382 49.8551 47.0217 49.7651 46.8622 49.6049C46.7026 49.4447 46.6133 49.2273 46.6133 49.0008C46.6133 48.4313 46.8967 48.0043 47.4639 48.0043H55.5464C55.7844 48.0388 56.002 48.1589 56.1585 48.3421C56.315 48.5254 56.3998 48.7594 56.3974 49.0008C56.3974 49.2273 56.3077 49.4447 56.1481 49.6049C55.9885 49.7651 55.7721 49.8551 55.5464 49.8551Z" fill="white"/>
</svg>
